<svg xmlns="http://www.w3.org/2000/svg" xmlns:xlink="http://www.w3.org/1999/xlink" width="500" zoomAndPan="magnify" viewBox="0 0 375 374.999991" height="500" preserveAspectRatio="xMidYMid meet" version="1.0"><defs><g/><clipPath id="e9888cb426"><path d="M 179 62.523438 L 209 62.523438 L 209 194 L 179 194 Z M 179 62.523438 " clip-rule="nonzero"/></clipPath><clipPath id="11d4b798cb"><path d="M 122.25 112 L 252.222656 112 L 252.222656 227.742188 L 122.25 227.742188 Z M 122.25 112 " clip-rule="nonzero"/></clipPath></defs><rect x="-37.5" width="450" fill="#ffffff" y="-37.499999" height="449.999989" fill-opacity="1"/><rect x="-37.5" width="450" fill="#ffffff" y="-37.499999" height="449.999989" fill-opacity="1"/><g clip-path="url(#e9888cb426)"><path fill="#00adef" d="M 196.25 83.046875 C 191.851562 83.046875 188.28125 79.457031 188.28125 75.035156 C 188.28125 70.609375 191.851562 67.023438 196.25 67.023438 C 200.648438 67.023438 204.210938 70.609375 204.210938 75.035156 C 204.210938 79.457031 200.648438 83.046875 196.25 83.046875 Z M 196.25 62.519531 C 189.378906 62.519531 183.808594 68.125 183.808594 75.035156 C 183.808594 80.996094 187.949219 85.980469 193.496094 87.238281 L 193.488281 87.238281 L 193.488281 164.804688 L 179.492188 178.855469 L 179.492188 190.398438 C 181.304688 191.449219 183.148438 192.410156 185.007812 193.273438 L 185.007812 181.15625 L 199.003906 167.105469 L 199.003906 87.242188 C 199.007812 87.242188 199.007812 87.238281 199.011719 87.238281 C 204.550781 85.976562 208.691406 80.992188 208.691406 75.035156 C 208.691406 68.125 203.121094 62.519531 196.25 62.519531 " fill-opacity="1" fill-rule="nonzero"/></g><path fill="#00adef" d="M 168.25 155.300781 C 163.851562 155.300781 160.285156 151.714844 160.285156 147.292969 C 160.285156 142.867188 163.851562 139.28125 168.25 139.28125 C 172.648438 139.28125 176.214844 142.867188 176.214844 147.292969 C 176.214844 151.714844 172.648438 155.300781 168.25 155.300781 Z M 168.25 134.777344 C 161.378906 134.777344 155.808594 140.382812 155.808594 147.292969 C 155.808594 153.25 159.949219 158.238281 165.496094 159.496094 L 165.496094 179.777344 C 167.214844 181.460938 169.058594 183.082031 171.011719 184.621094 L 171.011719 159.496094 C 176.554688 158.234375 180.691406 153.25 180.691406 147.292969 C 180.691406 140.382812 175.121094 134.777344 168.25 134.777344 " fill-opacity="1" fill-rule="nonzero"/><path fill="#00adef" d="M 207.960938 109.273438 C 207.960938 104.851562 211.523438 101.261719 215.925781 101.261719 C 220.324219 101.261719 223.890625 104.851562 223.890625 109.273438 C 223.890625 113.699219 220.324219 117.285156 215.925781 117.285156 C 211.523438 117.285156 207.960938 113.699219 207.960938 109.273438 Z M 199.175781 186.136719 L 199.175781 197.945312 C 201.042969 198.304688 202.882812 198.554688 204.691406 198.6875 L 204.691406 188.4375 L 218.683594 174.386719 L 218.683594 121.480469 C 224.230469 120.214844 228.367188 115.230469 228.367188 109.273438 C 228.367188 102.363281 222.796875 96.757812 215.925781 96.757812 C 209.054688 96.757812 203.484375 102.363281 203.484375 109.273438 C 203.484375 115.234375 207.625 120.21875 213.171875 121.480469 L 213.171875 172.085938 L 199.175781 186.136719 " fill-opacity="1" fill-rule="nonzero"/><g clip-path="url(#11d4b798cb)"><path fill="#00adef" d="M 245.402344 181.425781 L 252.207031 178.992188 C 250.757812 173.964844 248.554688 168.851562 245.65625 163.792969 L 236.609375 161.019531 C 232.761719 155.097656 227.84375 149.320312 221.988281 144 L 221.988281 151.375 C 233.847656 165.019531 237.867188 181.078125 230.703125 191.804688 C 221.195312 206.035156 195.601562 205.484375 173.535156 190.574219 C 151.46875 175.660156 141.289062 152.039062 150.792969 137.808594 C 157.800781 127.316406 173.554688 124.863281 190.1875 130.269531 L 190.1875 124.464844 C 185.707031 122.785156 181.25 121.519531 176.898438 120.671875 L 170.929688 113.296875 C 165.175781 112.511719 159.636719 112.390625 154.457031 112.941406 L 154.792969 120.195312 C 148.617188 121.320312 143.152344 123.617188 138.785156 127.101562 L 129.757812 123.605469 C 128.257812 125.085938 126.90625 126.710938 125.714844 128.492188 C 124.527344 130.269531 123.542969 132.148438 122.746094 134.101562 L 129.375 141.1875 C 127.820312 146.570312 127.769531 152.527344 129.070312 158.703125 L 122.265625 161.132812 C 123.714844 166.160156 125.917969 171.277344 128.820312 176.335938 L 137.863281 179.105469 C 141.914062 185.339844 147.144531 191.410156 153.414062 196.964844 L 152.828125 203.894531 C 155.339844 205.917969 157.972656 207.875 160.734375 209.738281 C 163.492188 211.601562 166.289062 213.316406 169.101562 214.890625 L 175.257812 211.722656 C 182.738281 215.460938 190.304688 218.039062 197.574219 219.453125 L 203.542969 226.828125 C 209.296875 227.617188 214.839844 227.734375 220.015625 227.183594 L 219.679688 219.929688 C 225.855469 218.804688 231.320312 216.507812 235.6875 213.023438 L 244.714844 216.519531 C 246.214844 215.042969 247.570312 213.414062 248.757812 211.632812 C 249.945312 209.855469 250.929688 207.980469 251.726562 206.023438 L 245.097656 198.9375 C 246.652344 193.554688 246.703125 187.597656 245.402344 181.425781 " fill-opacity="1" fill-rule="nonzero"/></g><g fill="#000000" fill-opacity="1"><g transform="translate(116.654103, 277.801013)"><g><path d="M 15.515625 -24.1875 L 15.515625 0 L 8.84375 0 L 8.84375 -24.1875 L 0.21875 -24.1875 L 0.21875 -30.234375 L 24.140625 -30.234375 L 24.140625 -24.1875 Z M 15.515625 -24.1875 "/></g></g></g><g fill="#000000" fill-opacity="1"><g transform="translate(141.016155, 277.801013)"><g><path d="M 26 -15.15625 C 26 -16.726562 25.582031 -18.1875 24.75 -19.53125 C 23.925781 -20.882812 22.835938 -21.972656 21.484375 -22.796875 C 20.140625 -23.628906 18.679688 -24.046875 17.109375 -24.046875 C 15.566406 -24.046875 14.113281 -23.628906 12.75 -22.796875 C 11.394531 -21.972656 10.300781 -20.882812 9.46875 -19.53125 C 8.632812 -18.1875 8.21875 -16.726562 8.21875 -15.15625 C 8.21875 -13.613281 8.632812 -12.160156 9.46875 -10.796875 C 10.300781 -9.429688 11.394531 -8.328125 12.75 -7.484375 C 14.113281 -6.640625 15.566406 -6.21875 17.109375 -6.21875 C 18.679688 -6.21875 20.140625 -6.640625 21.484375 -7.484375 C 22.835938 -8.328125 23.925781 -9.429688 24.75 -10.796875 C 25.582031 -12.160156 26 -13.613281 26 -15.15625 Z M 32.671875 -15.109375 C 32.671875 -13.035156 32.253906 -11.054688 31.421875 -9.171875 C 30.597656 -7.296875 29.46875 -5.640625 28.03125 -4.203125 C 26.59375 -2.765625 24.9375 -1.628906 23.0625 -0.796875 C 21.195312 0.0234375 19.210938 0.4375 17.109375 0.4375 C 15.035156 0.4375 13.054688 0.0234375 11.171875 -0.796875 C 9.296875 -1.628906 7.640625 -2.765625 6.203125 -4.203125 C 4.765625 -5.640625 3.628906 -7.296875 2.796875 -9.171875 C 1.972656 -11.054688 1.5625 -13.035156 1.5625 -15.109375 C 1.5625 -17.210938 1.972656 -19.195312 2.796875 -21.0625 C 3.628906 -22.9375 4.765625 -24.59375 6.203125 -26.03125 C 7.640625 -27.46875 9.296875 -28.597656 11.171875 -29.421875 C 13.054688 -30.253906 15.035156 -30.671875 17.109375 -30.671875 C 19.210938 -30.671875 21.195312 -30.253906 23.0625 -29.421875 C 24.9375 -28.597656 26.59375 -27.46875 28.03125 -26.03125 C 29.46875 -24.59375 30.597656 -22.9375 31.421875 -21.0625 C 32.253906 -19.195312 32.671875 -17.210938 32.671875 -15.109375 Z M 32.671875 -15.109375 "/></g></g></g><g fill="#000000" fill-opacity="1"><g transform="translate(175.247489, 277.801013)"><g><path d="M 15.515625 -24.1875 L 15.515625 0 L 8.84375 0 L 8.84375 -24.1875 L 0.21875 -24.1875 L 0.21875 -30.234375 L 24.140625 -30.234375 L 24.140625 -24.1875 Z M 15.515625 -24.1875 "/></g></g></g><g fill="#000000" fill-opacity="1"><g transform="translate(199.609541, 277.801013)"><g><path d="M 26 -15.15625 C 26 -16.726562 25.582031 -18.1875 24.75 -19.53125 C 23.925781 -20.882812 22.835938 -21.972656 21.484375 -22.796875 C 20.140625 -23.628906 18.679688 -24.046875 17.109375 -24.046875 C 15.566406 -24.046875 14.113281 -23.628906 12.75 -22.796875 C 11.394531 -21.972656 10.300781 -20.882812 9.46875 -19.53125 C 8.632812 -18.1875 8.21875 -16.726562 8.21875 -15.15625 C 8.21875 -13.613281 8.632812 -12.160156 9.46875 -10.796875 C 10.300781 -9.429688 11.394531 -8.328125 12.75 -7.484375 C 14.113281 -6.640625 15.566406 -6.21875 17.109375 -6.21875 C 18.679688 -6.21875 20.140625 -6.640625 21.484375 -7.484375 C 22.835938 -8.328125 23.925781 -9.429688 24.75 -10.796875 C 25.582031 -12.160156 26 -13.613281 26 -15.15625 Z M 32.671875 -15.109375 C 32.671875 -13.035156 32.253906 -11.054688 31.421875 -9.171875 C 30.597656 -7.296875 29.46875 -5.640625 28.03125 -4.203125 C 26.59375 -2.765625 24.9375 -1.628906 23.0625 -0.796875 C 21.195312 0.0234375 19.210938 0.4375 17.109375 0.4375 C 15.035156 0.4375 13.054688 0.0234375 11.171875 -0.796875 C 9.296875 -1.628906 7.640625 -2.765625 6.203125 -4.203125 C 4.765625 -5.640625 3.628906 -7.296875 2.796875 -9.171875 C 1.972656 -11.054688 1.5625 -13.035156 1.5625 -15.109375 C 1.5625 -17.210938 1.972656 -19.195312 2.796875 -21.0625 C 3.628906 -22.9375 4.765625 -24.59375 6.203125 -26.03125 C 7.640625 -27.46875 9.296875 -28.597656 11.171875 -29.421875 C 13.054688 -30.253906 15.035156 -30.671875 17.109375 -30.671875 C 19.210938 -30.671875 21.195312 -30.253906 23.0625 -29.421875 C 24.9375 -28.597656 26.59375 -27.46875 28.03125 -26.03125 C 29.46875 -24.59375 30.597656 -22.9375 31.421875 -21.0625 C 32.253906 -19.195312 32.671875 -17.210938 32.671875 -15.109375 Z M 32.671875 -15.109375 "/></g></g></g><g fill="#000000" fill-opacity="1"><g transform="translate(233.840874, 277.801013)"><g><path d="M 9.328125 -10.796875 L 9.328125 0 L 2.671875 0 L 2.671875 -30.234375 L 14 -30.234375 C 15.632812 -30.234375 17.15625 -29.820312 18.5625 -29 C 19.96875 -28.1875 21.097656 -27.050781 21.953125 -25.59375 C 22.816406 -24.144531 23.25 -22.457031 23.25 -20.53125 C 23.25 -18.84375 22.9375 -17.347656 22.3125 -16.046875 C 21.6875 -14.742188 20.851562 -13.675781 19.8125 -12.84375 C 18.78125 -12.019531 17.628906 -11.441406 16.359375 -11.109375 L 25.03125 0 L 16.578125 0 L 9.375 -10.796875 Z M 12.890625 -24.984375 L 9.328125 -24.984375 L 9.328125 -16.046875 L 12.890625 -16.046875 C 13.867188 -16.046875 14.78125 -16.429688 15.625 -17.203125 C 16.46875 -17.972656 16.890625 -19.082031 16.890625 -20.53125 C 16.890625 -21.925781 16.46875 -23.015625 15.625 -23.796875 C 14.78125 -24.585938 13.867188 -24.984375 12.890625 -24.984375 Z M 12.890625 -24.984375 "/></g></g></g><g fill="#000000" fill-opacity="1"><g transform="translate(134.498624, 308.821538)"><g><path d="M 12.375 -6.734375 C 12.375 -4.554688 11.78125 -2.890625 10.59375 -1.734375 C 9.40625 -0.578125 7.703125 0 5.484375 0 L 1.8125 0 L 1.8125 -13.21875 L 5.875 -13.21875 C 7.925781 -13.21875 9.519531 -12.644531 10.65625 -11.5 C 11.800781 -10.363281 12.375 -8.773438 12.375 -6.734375 Z M 10.734375 -6.6875 C 10.734375 -8.40625 10.300781 -9.703125 9.4375 -10.578125 C 8.570312 -11.453125 7.289062 -11.890625 5.59375 -11.890625 L 3.359375 -11.890625 L 3.359375 -1.328125 L 5.21875 -1.328125 C 7.050781 -1.328125 8.425781 -1.773438 9.34375 -2.671875 C 10.269531 -3.578125 10.734375 -4.914062 10.734375 -6.6875 Z M 10.734375 -6.6875 "/></g></g></g><g fill="#000000" fill-opacity="1"><g transform="translate(147.985999, 308.821538)"><g><path d="M 5.78125 0.1875 C 4.3125 0.1875 3.15625 -0.257812 2.3125 -1.15625 C 1.46875 -2.050781 1.046875 -3.289062 1.046875 -4.875 C 1.046875 -6.46875 1.4375 -7.734375 2.21875 -8.671875 C 3.007812 -9.617188 4.066406 -10.09375 5.390625 -10.09375 C 6.628906 -10.09375 7.609375 -9.679688 8.328125 -8.859375 C 9.054688 -8.046875 9.421875 -6.96875 9.421875 -5.625 L 9.421875 -4.6875 L 2.59375 -4.6875 C 2.625 -3.519531 2.914062 -2.632812 3.46875 -2.03125 C 4.03125 -1.425781 4.816406 -1.125 5.828125 -1.125 C 6.898438 -1.125 7.957031 -1.347656 9 -1.796875 L 9 -0.46875 C 8.46875 -0.238281 7.960938 -0.0703125 7.484375 0.03125 C 7.015625 0.132812 6.445312 0.1875 5.78125 0.1875 Z M 5.375 -8.828125 C 4.570312 -8.828125 3.929688 -8.566406 3.453125 -8.046875 C 2.984375 -7.535156 2.707031 -6.820312 2.625 -5.90625 L 7.8125 -5.90625 C 7.8125 -6.851562 7.597656 -7.578125 7.171875 -8.078125 C 6.753906 -8.578125 6.15625 -8.828125 5.375 -8.828125 Z M 5.375 -8.828125 "/></g></g></g><g fill="#000000" fill-opacity="1"><g transform="translate(158.365769, 308.821538)"><g><path d="M 7.984375 -2.703125 C 7.984375 -1.773438 7.640625 -1.0625 6.953125 -0.5625 C 6.265625 -0.0625 5.300781 0.1875 4.0625 0.1875 C 2.75 0.1875 1.722656 -0.0195312 0.984375 -0.4375 L 0.984375 -1.828125 C 1.460938 -1.585938 1.972656 -1.398438 2.515625 -1.265625 C 3.066406 -1.128906 3.59375 -1.0625 4.09375 -1.0625 C 4.875 -1.0625 5.472656 -1.1875 5.890625 -1.4375 C 6.316406 -1.6875 6.53125 -2.066406 6.53125 -2.578125 C 6.53125 -2.960938 6.363281 -3.289062 6.03125 -3.5625 C 5.695312 -3.84375 5.046875 -4.164062 4.078125 -4.53125 C 3.148438 -4.875 2.492188 -5.175781 2.109375 -5.4375 C 1.722656 -5.695312 1.429688 -5.988281 1.234375 -6.3125 C 1.046875 -6.632812 0.953125 -7.023438 0.953125 -7.484375 C 0.953125 -8.285156 1.28125 -8.921875 1.9375 -9.390625 C 2.59375 -9.859375 3.492188 -10.09375 4.640625 -10.09375 C 5.710938 -10.09375 6.757812 -9.875 7.78125 -9.4375 L 7.234375 -8.21875 C 6.242188 -8.625 5.34375 -8.828125 4.53125 -8.828125 C 3.820312 -8.828125 3.285156 -8.710938 2.921875 -8.484375 C 2.566406 -8.265625 2.390625 -7.960938 2.390625 -7.578125 C 2.390625 -7.304688 2.457031 -7.078125 2.59375 -6.890625 C 2.726562 -6.710938 2.945312 -6.535156 3.25 -6.359375 C 3.550781 -6.191406 4.128906 -5.945312 4.984375 -5.625 C 6.160156 -5.195312 6.953125 -4.765625 7.359375 -4.328125 C 7.773438 -3.898438 7.984375 -3.359375 7.984375 -2.703125 Z M 7.984375 -2.703125 "/></g></g></g><g fill="#000000" fill-opacity="1"><g transform="translate(167.191737, 308.821538)"><g><path d="M 3.09375 0 L 1.59375 0 L 1.59375 -9.90625 L 3.09375 -9.90625 Z M 1.46875 -12.59375 C 1.46875 -12.9375 1.550781 -13.1875 1.71875 -13.34375 C 1.882812 -13.507812 2.09375 -13.59375 2.34375 -13.59375 C 2.59375 -13.59375 2.800781 -13.507812 2.96875 -13.34375 C 3.144531 -13.175781 3.234375 -12.925781 3.234375 -12.59375 C 3.234375 -12.257812 3.144531 -12.007812 2.96875 -11.84375 C 2.800781 -11.675781 2.59375 -11.59375 2.34375 -11.59375 C 2.09375 -11.59375 1.882812 -11.675781 1.71875 -11.84375 C 1.550781 -12.007812 1.46875 -12.257812 1.46875 -12.59375 Z M 1.46875 -12.59375 "/></g></g></g><g fill="#000000" fill-opacity="1"><g transform="translate(171.871212, 308.821538)"><g><path d="M 9.703125 -9.90625 L 9.703125 -8.953125 L 7.859375 -8.75 C 8.035156 -8.53125 8.1875 -8.25 8.3125 -7.90625 C 8.445312 -7.570312 8.515625 -7.191406 8.515625 -6.765625 C 8.515625 -5.796875 8.179688 -5.019531 7.515625 -4.4375 C 6.859375 -3.863281 5.953125 -3.578125 4.796875 -3.578125 C 4.492188 -3.578125 4.210938 -3.597656 3.953125 -3.640625 C 3.316406 -3.304688 3 -2.882812 3 -2.375 C 3 -2.101562 3.109375 -1.898438 3.328125 -1.765625 C 3.554688 -1.640625 3.941406 -1.578125 4.484375 -1.578125 L 6.234375 -1.578125 C 7.304688 -1.578125 8.128906 -1.347656 8.703125 -0.890625 C 9.285156 -0.441406 9.578125 0.210938 9.578125 1.078125 C 9.578125 2.171875 9.132812 3.003906 8.25 3.578125 C 7.375 4.160156 6.09375 4.453125 4.40625 4.453125 C 3.101562 4.453125 2.101562 4.207031 1.40625 3.71875 C 0.707031 3.238281 0.359375 2.5625 0.359375 1.6875 C 0.359375 1.082031 0.550781 0.554688 0.9375 0.109375 C 1.320312 -0.328125 1.863281 -0.625 2.5625 -0.78125 C 2.300781 -0.894531 2.082031 -1.070312 1.90625 -1.3125 C 1.738281 -1.550781 1.65625 -1.832031 1.65625 -2.15625 C 1.65625 -2.507812 1.75 -2.820312 1.9375 -3.09375 C 2.132812 -3.375 2.441406 -3.640625 2.859375 -3.890625 C 2.347656 -4.097656 1.929688 -4.453125 1.609375 -4.953125 C 1.285156 -5.460938 1.125 -6.046875 1.125 -6.703125 C 1.125 -7.785156 1.445312 -8.617188 2.09375 -9.203125 C 2.75 -9.796875 3.675781 -10.09375 4.875 -10.09375 C 5.394531 -10.09375 5.863281 -10.03125 6.28125 -9.90625 Z M 1.796875 1.65625 C 1.796875 2.195312 2.019531 2.601562 2.46875 2.875 C 2.925781 3.15625 3.578125 3.296875 4.421875 3.296875 C 5.679688 3.296875 6.613281 3.109375 7.21875 2.734375 C 7.820312 2.359375 8.125 1.847656 8.125 1.203125 C 8.125 0.660156 7.957031 0.285156 7.625 0.078125 C 7.300781 -0.117188 6.679688 -0.21875 5.765625 -0.21875 L 3.953125 -0.21875 C 3.273438 -0.21875 2.742188 -0.0546875 2.359375 0.265625 C 1.984375 0.585938 1.796875 1.050781 1.796875 1.65625 Z M 2.609375 -6.734375 C 2.609375 -6.046875 2.800781 -5.519531 3.1875 -5.15625 C 3.582031 -4.800781 4.132812 -4.625 4.84375 -4.625 C 6.300781 -4.625 7.03125 -5.335938 7.03125 -6.765625 C 7.03125 -8.253906 6.289062 -9 4.8125 -9 C 4.101562 -9 3.554688 -8.804688 3.171875 -8.421875 C 2.796875 -8.046875 2.609375 -7.484375 2.609375 -6.734375 Z M 2.609375 -6.734375 "/></g></g></g><g fill="#000000" fill-opacity="1"><g transform="translate(182.007063, 308.821538)"><g><path d="M 8.375 0 L 8.375 -6.40625 C 8.375 -7.21875 8.1875 -7.820312 7.8125 -8.21875 C 7.445312 -8.613281 6.875 -8.8125 6.09375 -8.8125 C 5.050781 -8.8125 4.289062 -8.53125 3.8125 -7.96875 C 3.332031 -7.414062 3.09375 -6.492188 3.09375 -5.203125 L 3.09375 0 L 1.59375 0 L 1.59375 -9.90625 L 2.8125 -9.90625 L 3.0625 -8.546875 L 3.125 -8.546875 C 3.4375 -9.035156 3.867188 -9.414062 4.421875 -9.6875 C 4.972656 -9.957031 5.59375 -10.09375 6.28125 -10.09375 C 7.46875 -10.09375 8.363281 -9.800781 8.96875 -9.21875 C 9.570312 -8.644531 9.875 -7.726562 9.875 -6.46875 L 9.875 0 Z M 8.375 0 "/></g></g></g><g fill="#000000" fill-opacity="1"><g transform="translate(193.362476, 308.821538)"><g/></g></g><g fill="#000000" fill-opacity="1"><g transform="translate(198.168423, 308.821538)"><g><path d="M 9.59375 0 L 0.90625 0 L 0.90625 -1.296875 L 4.390625 -4.796875 C 5.441406 -5.867188 6.132812 -6.632812 6.46875 -7.09375 C 6.8125 -7.550781 7.066406 -7.992188 7.234375 -8.421875 C 7.410156 -8.859375 7.5 -9.328125 7.5 -9.828125 C 7.5 -10.535156 7.285156 -11.09375 6.859375 -11.5 C 6.429688 -11.914062 5.835938 -12.125 5.078125 -12.125 C 4.523438 -12.125 4.003906 -12.03125 3.515625 -11.84375 C 3.023438 -11.664062 2.476562 -11.335938 1.875 -10.859375 L 1.078125 -11.890625 C 2.296875 -12.898438 3.617188 -13.40625 5.046875 -13.40625 C 6.296875 -13.40625 7.269531 -13.085938 7.96875 -12.453125 C 8.675781 -11.816406 9.03125 -10.960938 9.03125 -9.890625 C 9.03125 -9.054688 8.796875 -8.226562 8.328125 -7.40625 C 7.859375 -6.582031 6.976562 -5.546875 5.6875 -4.296875 L 2.796875 -1.46875 L 2.796875 -1.390625 L 9.59375 -1.390625 Z M 9.59375 0 "/></g></g></g><g fill="#000000" fill-opacity="1"><g transform="translate(208.746936, 308.821538)"><g><path d="M 9.671875 -6.625 C 9.671875 -4.34375 9.304688 -2.632812 8.578125 -1.5 C 7.859375 -0.375 6.757812 0.1875 5.28125 0.1875 C 3.851562 0.1875 2.769531 -0.390625 2.03125 -1.546875 C 1.289062 -2.703125 0.921875 -4.394531 0.921875 -6.625 C 0.921875 -8.925781 1.28125 -10.632812 2 -11.75 C 2.71875 -12.863281 3.8125 -13.421875 5.28125 -13.421875 C 6.71875 -13.421875 7.804688 -12.835938 8.546875 -11.671875 C 9.296875 -10.515625 9.671875 -8.832031 9.671875 -6.625 Z M 2.4375 -6.625 C 2.4375 -4.707031 2.660156 -3.304688 3.109375 -2.421875 C 3.566406 -1.546875 4.289062 -1.109375 5.28125 -1.109375 C 6.28125 -1.109375 7.003906 -1.550781 7.453125 -2.4375 C 7.898438 -3.332031 8.125 -4.726562 8.125 -6.625 C 8.125 -8.519531 7.898438 -9.910156 7.453125 -10.796875 C 7.003906 -11.679688 6.28125 -12.125 5.28125 -12.125 C 4.289062 -12.125 3.566406 -11.6875 3.109375 -10.8125 C 2.660156 -9.945312 2.4375 -8.550781 2.4375 -6.625 Z M 2.4375 -6.625 "/></g></g></g><g fill="#000000" fill-opacity="1"><g transform="translate(219.325448, 308.821538)"><g><path d="M 9.59375 0 L 0.90625 0 L 0.90625 -1.296875 L 4.390625 -4.796875 C 5.441406 -5.867188 6.132812 -6.632812 6.46875 -7.09375 C 6.8125 -7.550781 7.066406 -7.992188 7.234375 -8.421875 C 7.410156 -8.859375 7.5 -9.328125 7.5 -9.828125 C 7.5 -10.535156 7.285156 -11.09375 6.859375 -11.5 C 6.429688 -11.914062 5.835938 -12.125 5.078125 -12.125 C 4.523438 -12.125 4.003906 -12.03125 3.515625 -11.84375 C 3.023438 -11.664062 2.476562 -11.335938 1.875 -10.859375 L 1.078125 -11.890625 C 2.296875 -12.898438 3.617188 -13.40625 5.046875 -13.40625 C 6.296875 -13.40625 7.269531 -13.085938 7.96875 -12.453125 C 8.675781 -11.816406 9.03125 -10.960938 9.03125 -9.890625 C 9.03125 -9.054688 8.796875 -8.226562 8.328125 -7.40625 C 7.859375 -6.582031 6.976562 -5.546875 5.6875 -4.296875 L 2.796875 -1.46875 L 2.796875 -1.390625 L 9.59375 -1.390625 Z M 9.59375 0 "/></g></g></g><g fill="#000000" fill-opacity="1"><g transform="translate(229.90396, 308.821538)"><g><path d="M 10.21875 -3.03125 L 8.25 -3.03125 L 8.25 0 L 6.8125 0 L 6.8125 -3.03125 L 0.390625 -3.03125 L 0.390625 -4.34375 L 6.65625 -13.296875 L 8.25 -13.296875 L 8.25 -4.40625 L 10.21875 -4.40625 Z M 6.8125 -4.40625 L 6.8125 -8.796875 C 6.8125 -9.660156 6.84375 -10.632812 6.90625 -11.71875 L 6.828125 -11.71875 C 6.546875 -11.132812 6.273438 -10.65625 6.015625 -10.28125 L 1.890625 -4.40625 Z M 6.8125 -4.40625 "/></g></g></g></svg>